<?xml version="1.0" standalone="no"?>
<svg xmlns="http://www.w3.org/2000/svg" 
viewBox="0 0 1440 320"><path fill="#680668" fill-opacity="1" d="M0,192L17.1,213.3C34.3,235,69,277,103,277.3C137.1,277,171,235,206,208C240,181,274,171,309,181.3C342.9,192,377,224,411,218.7C445.7,213,480,171,514,165.3C548.6,160,583,192,617,218.7C651.4,245,686,267,720,245.3C754.3,224,789,160,823,160C857.1,160,891,224,926,234.7C960,245,994,203,1029,165.3C1062.9,128,1097,96,1131,101.3C1165.7,107,1200,149,1234,144C1268.6,139,1303,85,1337,90.7C1371.4,96,1406,160,1423,192L1440,224L1440,0L1422.9,0C1405.7,0,1371,0,1337,0C1302.9,0,1269,0,1234,0C1200,0,1166,0,1131,0C1097.1,0,1063,0,1029,0C994.3,0,960,0,926,0C891.4,0,857,0,823,0C788.6,0,754,0,720,0C685.7,0,651,0,617,0C582.9,0,549,0,514,0C480,0,446,0,411,0C377.1,0,343,0,309,0C274.3,0,240,0,206,0C171.4,0,137,0,103,0C68.6,0,34,0,17,0L0,0Z"></path></svg>